<svg id="logo" xmlns="http://www.w3.org/2000/svg" viewBox="0 0 567.21 651.97"><defs><style>.cls-1{fill:#ffe006;}.cls-2{fill:none;}.cls-3{fill:#fff;}</style></defs><title>BW_i - Logo - Full - Yellow - Web</title><rect class="cls-1" x="141.87" y="141.73" width="283.46" height="368.5"/><path class="cls-2" d="M294.7,250.89a1.9,1.9,0,0,0,0,3.79h3v-3.8h-3Z"/><path d="M316.38,272.53v-7.59H288.47l1.66-4.93h7.59v-5.32h-3a1.9,1.9,0,0,1,0-3.79h3V240.26H272.18v6.83L263.81,260h-57.6l-1.78-5.31h53.18V240.26h-7.86v6.83H193.88l6,17.85-11.44,34.18h19.36v-7.59h-6.39l6.39-9.87h5.67l5.85,17.47h17.36v-7.6h-9.82v-9.87h22.9L293,299.12h13.57v-7.6H296.12l-15.21-9.87,23.74-9.12ZM283.93,249h-3V245.2h3a1.9,1.9,0,1,1,0,3.79Z"/><path class="cls-2" d="M283.93,245.2h-3V249h3a1.9,1.9,0,1,0,0-3.79Z"/><polygon class="cls-3" points="378.82 240.26 367.19 240.26 367.19 199.54 326.47 199.54 326.47 187.91 378.82 187.91 378.82 240.26"/><rect x="367.19" y="375.03" width="11.63" height="2.57"/><path d="M246.85,415.09V410h2.81v5.07h4.27v2.54h-4.27v8.55h4.27v2.54h-7.08V415.09Z"/><path d="M371.5,414.84a5.53,5.53,0,0,1,3.18,1,5.13,5.13,0,0,1,1.1,1h.13V415.1h2.8v20H367.09v-2.53h8.82V427h-.13a5.13,5.13,0,0,1-1.1,1,5.53,5.53,0,0,1-3.18,1c-3.6,0-6.41-2.81-6.41-7.08S367.9,414.84,371.5,414.84Zm.54,11.62c2.27,0,3.87-1.58,3.87-4.54s-1.6-4.54-3.87-4.54c-2.43,0-4,1.57-4,4.54S369.61,426.46,372,426.46Z"/><path d="M215.31,415.08h2.81V423c0,2.43,1.07,3.47,3.21,3.47a3.72,3.72,0,0,0,3.74-4v-7.35h2.81v13.64h-2.81v-1.88h-.13a4,4,0,0,1-1,1.07,5.3,5.3,0,0,1-3.29,1.07c-3.35,0-5.35-2-5.35-5.75Z"/><rect x="223.67" y="410.02" width="2.81" height="1.91"/><rect x="216.71" y="410.02" width="2.81" height="1.91"/><path d="M188.42,375h9.22c3.6,0,5.74,2.14,5.74,4.81A3.78,3.78,0,0,1,202,383a4.33,4.33,0,0,1-1.38.72v.14a4.67,4.67,0,0,1,1.73.72,4.39,4.39,0,0,1,1.74,3.82c0,3.07-2.27,5.34-6.55,5.34h-9.08Zm9.08,7.61c1.74,0,2.67-.93,2.67-2.43,0-1.31-.93-2.24-2.67-2.24h-6v4.67Zm-.13,8.15c2.43,0,3.47-1.07,3.47-2.67s-1-2.67-3.47-2.67h-5.88v5.34Z"/><path d="M215,379.84a5.66,5.66,0,0,1,4.27,2h.14v-1.73h2.8v13.62h-2.8v-1.87h-.14a5,5,0,0,1-1.09,1.07A5.32,5.32,0,0,1,215,394c-3.61,0-6.41-2.81-6.41-7.08S211.34,379.84,215,379.84Zm.53,11.62c2.27,0,3.88-1.58,3.88-4.54s-1.61-4.54-3.88-4.54c-2.43,0-4,1.57-4,4.54S213.05,391.46,215.48,391.46Z"/><path d="M233.7,379.84a5.53,5.53,0,0,1,3.18,1,5.9,5.9,0,0,1,1.1,1h.13V375h2.81v18.7h-2.81V392H238a5.13,5.13,0,0,1-1.1,1,5.46,5.46,0,0,1-3.18,1c-3.6,0-6.41-2.81-6.41-7.08S230.1,379.84,233.7,379.84Zm.54,11.62c2.27,0,3.87-1.58,3.87-4.54s-1.6-4.54-3.87-4.54c-2.43,0-4,1.57-4,4.54S231.81,391.46,234.24,391.46Z"/><path d="M253,379.84a7,7,0,0,1,6.95,7.08v.93H248.85a4.18,4.18,0,0,0,4.14,3.61,4.59,4.59,0,0,0,3-.94,3.92,3.92,0,0,0,.89-.93h2.93a7.17,7.17,0,0,1-1.41,2.22A7.26,7.26,0,0,1,253,394a7.08,7.08,0,0,1,0-14.16Zm4,5.74a3.85,3.85,0,0,0-4-3.2,4,4,0,0,0-4,3.2Z"/><path d="M265.07,380.11h2.8V382H268a4,4,0,0,1,1-1.07,5.16,5.16,0,0,1,3.28-1.07c3.34,0,5.34,2,5.34,5.74v8.15h-2.8v-7.88c0-2.43-1.07-3.47-3.21-3.47a3.72,3.72,0,0,0-3.74,4v7.35h-2.8Z"/><path d="M233.44,415.09h2.8v2h.14a3.79,3.79,0,0,1,.85-1.07,4.21,4.21,0,0,1,2.89-1.07h1.6v2.67H240a3.58,3.58,0,0,0-3.74,3.74v7.35h-2.8Z"/><path d="M276.94,414.8a7,7,0,0,1,6.95,7.08v.93H272.8a4.18,4.18,0,0,0,4.14,3.61,4.59,4.59,0,0,0,3-.94,4.08,4.08,0,0,0,.88-.93h2.94a7,7,0,0,1-1.41,2.21,7.23,7.23,0,0,1-5.4,2.2,7.08,7.08,0,0,1,0-14.16Zm4,5.74a3.87,3.87,0,0,0-4-3.21,4,4,0,0,0-4,3.21Z"/><path d="M289.46,415.09h2.8V417h.14a4.34,4.34,0,0,1,.9-1.07,4.68,4.68,0,0,1,3.1-1.07,4.83,4.83,0,0,1,3.5,1.29,4,4,0,0,1,.91,1.25h.13a4.08,4.08,0,0,1,1.05-1.25,5.31,5.31,0,0,1,3.63-1.29c3.1,0,5.08,2,5.08,5.75v8.15h-2.81v-8c0-2.27-1-3.34-2.94-3.34a3.66,3.66,0,0,0-3.47,3.88v7.48h-2.81v-8c0-2.27-1-3.34-2.93-3.34a3.66,3.66,0,0,0-3.48,3.88v7.48h-2.8Z"/><path d="M341.53,414.81a6.94,6.94,0,0,1,6.94,7.08v.93H337.39a4.16,4.16,0,0,0,4.14,3.61,4.62,4.62,0,0,0,3-.94,4.29,4.29,0,0,0,.88-.93h2.94a7,7,0,0,1-1.42,2.21,7.2,7.2,0,0,1-5.39,2.19,7.08,7.08,0,0,1,0-14.15Zm4,5.74a3.85,3.85,0,0,0-4-3.21,4,4,0,0,0-4,3.21Z"/><path d="M353.6,415.09h2.81v2h.13a3.83,3.83,0,0,1,.86-1.07,4.18,4.18,0,0,1,2.88-1.07h1.6v2.67h-1.73a3.57,3.57,0,0,0-3.74,3.74v7.35H353.6Z"/><path d="M188.42,445h4.94v18.7h-4.94Z"/><path d="M197.43,449.81H202v1.87h.26a3.69,3.69,0,0,1,1-1.12,4.76,4.76,0,0,1,3.17-1.15c3.24,0,5.21,2,5.21,5.74v8.55H207v-7.88a2.27,2.27,0,0,0-2.4-2.54c-1.5,0-2.67,1.18-2.67,3.08v7.34h-4.54Z"/><path d="M234.34,449.43a7.42,7.42,0,0,1,7.62,7.35v.8H231.41c.29,1.9,1.33,2.94,2.93,2.94a2.9,2.9,0,0,0,2.14-.72,2.25,2.25,0,0,0,.54-.75h4.8a7.24,7.24,0,0,1-1.44,2.54,7.59,7.59,0,1,1-6-12.16Zm2.81,5.88a2.87,2.87,0,0,0-5.61,0Z"/><path d="M245.48,449.81h4.41v2h.27a3.17,3.17,0,0,1,.72-1.12,3.54,3.54,0,0,1,2.67-1.15H255V454H252.7a2.52,2.52,0,0,0-2.67,2.67v7.08h-4.55Z"/><path d="M258.57,449.81h4.54v1.87h.27a3.79,3.79,0,0,1,1-1.12,4.79,4.79,0,0,1,3.18-1.15c3.23,0,5.21,2,5.21,5.74v8.55h-4.55v-7.88a2.27,2.27,0,0,0-2.4-2.54,2.76,2.76,0,0,0-2.67,3.07v7.35h-4.54Z"/><path d="M282,449.41a5,5,0,0,1,3.12,1.15,4.53,4.53,0,0,1,1,1.12h.26v-1.87h4.54V463.7h-4.54v-1.87h-.26a4.18,4.18,0,0,1-1,1.15A5,5,0,0,1,282,464.1c-3.32,0-6.15-2.78-6.15-7.34S278.63,449.41,282,449.41Zm1.47,10.82c1.73,0,2.93-1.2,2.93-3.47s-1.2-3.48-2.93-3.48-2.94,1.21-2.94,3.48S281.68,460.23,283.42,460.23Z"/><path d="M307.07,449.81h4.54V463.7h-4.54Z"/><path d="M322.76,449.43a7.36,7.36,0,1,1-7.75,7.35A7.52,7.52,0,0,1,322.76,449.43Zm0,10.82c1.73,0,3.07-1.33,3.07-3.47s-1.34-3.47-3.07-3.47-3.08,1.33-3.08,3.47S321,460.25,322.76,460.25Z"/><path d="M333.9,449.81h4.54v1.87h.27a3.79,3.79,0,0,1,1-1.12,4.81,4.81,0,0,1,3.18-1.15c3.23,0,5.21,2,5.21,5.74v8.55h-4.54v-7.88a2.27,2.27,0,0,0-2.4-2.54,2.77,2.77,0,0,0-2.68,3.08v7.34H333.9Z"/><path d="M357.28,449.41a5,5,0,0,1,3.13,1.15,4.3,4.3,0,0,1,1,1.12h.27v-1.87h4.54V463.7h-4.54v-1.87h-.27a4,4,0,0,1-1,1.15,5,5,0,0,1-3.13,1.12c-3.31,0-6.14-2.77-6.14-7.34S354,449.41,357.28,449.41Zm1.47,10.82c1.74,0,2.94-1.2,2.94-3.47s-1.2-3.48-2.94-3.48-2.94,1.21-2.94,3.48S357,460.23,358.75,460.23Z"/><rect x="307.07" y="444.92" width="4.54" height="2.94"/><path d="M215.43,449.81V445H220v4.81h3.87v3.61H220v6.68h3.88v3.6h-8.42V449.81Z"/><path d="M295.06,449.81V445h4.55v4.81h3.87v3.61h-3.87v6.68h3.87v3.6h-8.42V449.81Z"/><path d="M374.84,460.1h3.87v3.6h-8.42V445h4.55Z"/><path d="M258.42,415.09V410h2.8v5.07h4.28v2.54h-4.28v8.55h4.28v2.54h-7.08V415.09Z"/><path d="M316.47,410h2.8v6.81h.14a5.53,5.53,0,0,1,1.09-1,5.38,5.38,0,0,1,3.18-1c3.61,0,6.41,2.8,6.41,7.08s-2.8,7.08-6.41,7.08a5.45,5.45,0,0,1-3.18-1,4.85,4.85,0,0,1-1.09-1h-.14v1.74h-2.8Zm6.68,16.43c2.43,0,4-1.58,4-4.54s-1.57-4.55-4-4.55c-2.28,0-3.88,1.58-3.88,4.55S320.87,426.45,323.15,426.45Z"/><path d="M189.45,410l3.26,16h.4l3.15-16h4.68l3.28,16h.4l3.13-16h3.07L207,428.72H202l-3.21-15.36h-.4l-3.07,15.36h-5.08l-4-18.7Z"/></svg>